<svg class="svg-icon" style="width: 1em; height: 1em;vertical-align: middle;fill: currentColor;overflow: hidden;" viewBox="0 0 1024 1024" version="1.1" xmlns="http://www.w3.org/2000/svg"><path d="M243.88 589.77V373.574c0-147.84 120.278-268.118 268.12-268.118 147.84 0 268.118 120.278 268.118 268.118v216.196h80V373.574c0-191.952-156.166-348.118-348.12-348.118S163.88 181.622 163.88 373.574v216.196h80z" fill="#3a3336" /><path d="M511.998 25.456c-191.954 0-348.118 156.166-348.118 348.118v40c0-191.952 156.166-348.118 348.118-348.118s348.12 156.166 348.12 348.118v-40c0-191.952-156.166-348.118-348.12-348.118z" fill="#755d69" /><path d="M738.896 602.776c-45.934 50.468-114.732 62.652-153.668 27.214-38.936-35.438-33.264-105.078 12.67-155.544 36.07-39.63 135.794-61.87 176.96-69.594 9.246-1.734 17.574 5.844 16.714 15.212-3.826 41.712-16.606 143.082-52.676 182.712zM262.19 598.718c52.782 57.992 131.84 71.992 176.58 31.272 44.74-40.722 38.222-120.744-14.56-178.736-41.448-45.538-156.04-71.094-203.346-79.97-10.624-1.994-20.194 6.716-19.206 17.48 4.4 47.93 19.086 164.416 60.532 209.954z" fill="#333399" /><path d="M742.358 1010.152H281.64c-52.706 0-99.932-32.556-118.68-81.816L44.818 617.93c-5.174-13.594 4.866-28.16 19.412-28.16h895.538c14.546 0 24.588 14.566 19.412 28.16l-118.142 310.408c-18.748 49.258-65.974 81.814-118.68 81.814z" fill="#3a3336" /><path d="M875.982 888.338c-19.55 49.258-68.8 81.814-123.762 81.814H271.778c-54.962 0-104.21-32.556-123.762-81.814l-6.804-17.146 21.75 57.146c18.748 49.258 65.974 81.814 118.68 81.814H742.36c52.706 0 99.932-32.556 118.68-81.814l21.752-57.152-6.81 17.152z" fill="#5FD4E3" /><path d="M457.252 387.202c-16.65 66.794 11.628 131.356 63.162 144.2 51.532 12.844 106.804-30.89 123.454-97.684 13.074-52.452-24.072-148.594-40.63-187.466-3.718-8.732-14.74-11.478-22.122-5.514-32.864 26.554-110.79 94.014-123.864 146.464zM341.12 679.376c-24.966-43.516-72.422-63.18-105.996-43.918s-40.55 70.154-15.584 113.67c19.604 34.172 87.664 65.96 115.992 78.036 6.362 2.712 13.542-1.406 14.412-8.268 3.872-30.55 10.78-105.35-8.824-139.52zM148.978 437.624c35.476 35.476 42.046 86.422 14.678 113.79s-78.316 20.798-113.79-14.678c-27.858-27.858-40.744-101.86-44.996-132.36-0.954-6.85 4.898-12.704 11.748-11.748 30.498 4.252 104.502 17.138 132.36 44.996z" fill="#6770E6" /><path d="M111.496 492.782c-16.482 16.482-16.482 43.206 0 59.69l63.228 63.228 59.69-59.69-63.228-63.228c-16.484-16.482-43.208-16.482-59.69 0z" fill="#FFAC8C" /><path d="M297.642 492.782c-16.482-16.482-43.206-16.482-59.69 0l-63.228 63.228 59.69 59.69 63.228-63.228c16.484-16.484 16.484-43.208 0-59.69z" fill="#FFAC8C" /><path d="M204.57 454.23c-23.31 0-42.206 18.896-42.206 42.206v89.418h84.414v-89.418c-0.002-23.31-18.898-42.206-42.208-42.206z" fill="#ac767d" /><path d="M297.642 678.928c16.482-16.482 16.482-43.206 0-59.69l-63.228-63.228-59.69 59.69 63.228 63.228c16.484 16.484 43.208 16.484 59.69 0z" fill="#FFAC8C" /><path d="M111.496 678.928c16.482 16.482 43.206 16.482 59.69 0l63.228-63.228-59.69-59.69-63.228 63.23c-16.482 16.482-16.482 43.206 0 59.688z" fill="#FFAC8C" /><path d="M204.57 717.482c23.31 0 42.206-18.896 42.206-42.206v-89.418H162.362v89.418c0 23.308 18.898 42.206 42.208 42.206z" fill="#ac767d" /><path d="M72.944 585.856c0 23.31 18.896 42.206 42.206 42.206h89.418v-84.414H115.15c-23.31 0-42.206 18.898-42.206 42.208zM336.196 585.856c0-23.31-18.896-42.206-42.206-42.206h-89.418v84.414h89.418c23.308-0.002 42.206-18.898 42.206-42.208z" fill="#ac767d" /><path d="M204.57 585.856m-60.19 0a60.19 60.19 0 1 0 120.38 0 60.19 60.19 0 1 0-120.38 0Z" fill="#333399" /><path d="M978.902 536.738c-35.476 35.476-86.422 42.046-113.79 14.678s-20.798-78.316 14.678-113.79c27.858-27.858 101.86-40.744 132.36-44.994 6.85-0.954 12.704 4.898 11.748 11.748-4.252 30.496-17.138 104.5-44.996 132.358zM768.604 743.992c35.476-35.476 42.046-86.422 14.678-113.79-27.37-27.37-78.316-20.798-113.79 14.678-27.858 27.858-40.744 101.86-44.994 132.36-0.954 6.85 4.898 12.704 11.748 11.748 30.498-4.25 104.502-17.138 132.358-44.996z" fill="#6770E6" /><path d="M726.356 492.782c-16.482 16.482-16.482 43.206 0 59.69l63.228 63.228 59.69-59.69-63.228-63.228c-16.484-16.482-43.208-16.482-59.69 0z" fill="#FFAC8C" /><path d="M912.502 492.782c-16.482-16.482-43.206-16.482-59.69 0l-63.228 63.228 59.69 59.69 63.228-63.228c16.484-16.484 16.484-43.208 0-59.69z" fill="#FFAC8C" /><path d="M819.43 454.23c-23.31 0-42.206 18.896-42.206 42.206v89.418h84.414v-89.418c-0.002-23.31-18.898-42.206-42.208-42.206z" fill="#ac767d" /><path d="M912.502 678.928c16.482-16.482 16.482-43.206 0-59.69l-63.228-63.228-59.69 59.69 63.228 63.228c16.484 16.484 43.208 16.484 59.69 0z" fill="#FFAC8C" /><path d="M726.356 678.928c16.482 16.482 43.206 16.482 59.69 0l63.228-63.228-59.69-59.69-63.228 63.228c-16.482 16.484-16.482 43.208 0 59.69z" fill="#FFAC8C" /><path d="M819.43 717.482c23.31 0 42.206-18.896 42.206-42.206v-89.418h-84.414v89.418c0 23.308 18.898 42.206 42.208 42.206z" fill="#ac767d" /><path d="M687.804 585.856c0 23.31 18.896 42.206 42.206 42.206h89.418v-84.414h-89.418c-23.31 0-42.206 18.898-42.206 42.208zM951.054 585.856c0-23.31-18.896-42.206-42.206-42.206h-89.418v84.414h89.418c23.31-0.002 42.206-18.898 42.206-42.208z" fill="#ac767d" /><path d="M819.43 585.856m-60.19 0a60.19 60.19 0 1 0 120.38 0 60.19 60.19 0 1 0-120.38 0Z" fill="#333399" /><path d="M394.926 416.568c-20.734 20.734-20.734 54.348 0 75.082l79.534 79.534 75.082-75.082-79.534-79.534c-20.734-20.734-54.35-20.734-75.082 0z" fill="#FFAC8C" /><path d="M629.074 416.568c-20.734-20.734-54.348-20.734-75.082 0l-79.534 79.534 75.082 75.082 79.534-79.534c20.732-20.734 20.732-54.35 0-75.082z" fill="#FFAC8C" /><path d="M512 368.074c-29.322 0-53.09 23.77-53.09 53.09v112.478h106.182v-112.478c-0.002-29.32-23.772-53.09-53.092-53.09z" fill="#ac767d" /><path d="M629.074 650.716c20.734-20.734 20.734-54.348 0-75.082L549.54 496.1l-75.082 75.082 79.534 79.534c20.734 20.734 54.348 20.734 75.082 0z" fill="#FFAC8C" /><path d="M394.926 650.716c20.734 20.734 54.348 20.734 75.082 0l79.534-79.534-75.082-75.082-79.534 79.534c-20.734 20.734-20.734 54.35 0 75.082z" fill="#FFAC8C" /><path d="M512 699.21c29.322 0 53.09-23.77 53.09-53.09v-112.478h-106.182v112.478c0 29.32 23.77 53.09 53.092 53.09z" fill="#ac767d" /><path d="M346.432 533.642c0 29.322 23.77 53.09 53.09 53.09H512v-106.182h-112.478c-29.322 0.002-53.09 23.77-53.09 53.092zM677.568 533.642c0-29.322-23.77-53.09-53.09-53.09H512v106.182h112.478c29.32-0.002 53.09-23.77 53.09-53.092z" fill="#ac767d" /><path d="M512 533.642m-75.712 0a75.712 75.712 0 1 0 151.424 0 75.712 75.712 0 1 0-151.424 0Z" fill="#333399" /></svg>