<?xml version="1.0" encoding="utf-8"?>
<!-- Generator: Adobe Illustrator 16.0.0, SVG Export Plug-In . SVG Version: 6.00 Build 0)  -->
<!DOCTYPE svg PUBLIC "-//W3C//DTD SVG 1.1//EN" "http://www.w3.org/Graphics/SVG/1.1/DTD/svg11.dtd">
<svg version="1.1" id="Layer_1" xmlns="http://www.w3.org/2000/svg" xmlns:xlink="http://www.w3.org/1999/xlink" x="0px" y="0px"
	 width="622px" height="266px" viewBox="-21.5 -19.5 622 266" enable-background="new -21.5 -19.5 622 266" xml:space="preserve">
<g>
	<path fill="#299DF4" d="M187.05,40.124c-1.409,0.833-2.966,1.439-4.625,1.768c-1.329-1.414-3.224-2.3-5.313-2.3
		c-4.022,0-7.281,3.259-7.281,7.281c0,0.569,0.062,1.127,0.188,1.656c-6.051-0.301-11.416-3.199-15.009-7.605
		c-0.628,1.076-0.985,2.328-0.985,3.662c0,2.523,1.285,4.754,3.24,6.06c-1.195-0.037-2.315-0.366-3.298-0.912
		c-0.002,0.03-0.002,0.062-0.002,0.095c0,3.525,2.509,6.471,5.843,7.138c-0.613,0.168-1.255,0.259-1.92,0.259
		c-0.468,0-0.924-0.048-1.367-0.132c0.926,2.892,3.612,4.997,6.799,5.056c-2.49,1.953-5.629,3.117-9.043,3.117
		c-0.588,0-1.166-0.033-1.736-0.103c3.223,2.065,7.051,3.272,11.163,3.272c13.394,0,20.717-11.097,20.717-20.718
		c0-0.315-0.008-0.63-0.021-0.943c1.422-1.025,2.656-2.308,3.631-3.768c-1.305,0.578-2.709,0.968-4.182,1.144
		C185.352,43.252,186.506,41.821,187.05,40.124z"/>
	<path fill="#299DF4" d="M169.5,11.725c-23.035,0-41.775,18.739-41.775,41.774s18.74,41.776,41.775,41.776
		s41.775-18.741,41.775-41.776S192.535,11.725,169.5,11.725z M169.5,89.535c-19.87,0-36.036-16.166-36.036-36.036
		S149.63,17.464,169.5,17.464s36.036,16.165,36.036,36.035S189.37,89.535,169.5,89.535z"/>
</g>
<g>
	<path fill="#3B589D" d="M57.689,47.141l-0.432,5.749h-5.605v19.257h-7.377V52.89h-3.734v-5.749h3.734V42.83v-1.245
		c0,0-0.264-6.364,7.377-6.708c3.714-0.166,6.807,0.671,6.807,0.671L57.674,41.2c0,0-6.021-1.866-6.021,1.771v4.169L57.689,47.141
		L57.689,47.141z"/>
	<path fill="#3B589D" d="M49.499,95.275c-23.033,0-41.774-18.741-41.774-41.776s18.741-41.774,41.774-41.774
		c23.035,0,41.776,18.739,41.776,41.774S72.534,95.275,49.499,95.275z M49.499,17.464c-19.87,0-36.035,16.165-36.035,36.035
		s16.165,36.036,36.035,36.036c19.872,0,36.036-16.166,36.036-36.036S69.371,17.464,49.499,17.464z"/>
</g>
<g>
	<path fill="#D64631" d="M282.126,50.73v5.754h8.038c-0.618,3.469-3.623,5.99-8.038,5.99c-4.868,0-8.823-4.117-8.823-8.988
		c0-4.864,3.955-8.978,8.823-8.978c2.192,0,4.157,0.757,5.704,2.23v0.012l4.16-4.159c-2.557-2.379-5.883-3.842-9.864-3.842
		c-8.149,0-14.749,6.6-14.749,14.744c0,8.152,6.6,14.754,14.749,14.754c8.519,0,14.158-5.994,14.158-14.419
		c0-1.08-0.103-2.113-0.284-3.1L282.126,50.73L282.126,50.73z"/>
	<polygon fill="#D64631" points="307.015,47.047 303.328,47.047 303.328,51.656 298.717,51.656 298.717,55.342 303.328,55.342 
		303.328,59.953 307.015,59.953 307.015,55.342 311.624,55.342 311.624,51.656 307.015,51.656 	"/>
	<path fill="#D64631" d="M289.501,11.725c-23.035,0-41.776,18.739-41.776,41.774s18.741,41.776,41.776,41.776
		s41.774-18.741,41.774-41.776S312.536,11.725,289.501,11.725z M289.501,89.535c-19.87,0-36.036-16.166-36.036-36.036
		s16.166-36.035,36.036-36.035s36.034,16.165,36.034,36.035S309.371,89.535,289.501,89.535z"/>
</g>
<linearGradient id="SVGID_1_" gradientUnits="userSpaceOnUse" x1="627.4736" y1="-353.0259" x2="686.526" y2="-293.9735" gradientTransform="matrix(1 0 0 -1 -247.5 -270)">
	<stop  offset="0" style="stop-color:#FFBD00"/>
	<stop  offset="0.4002" style="stop-color:#CA3744"/>
	<stop  offset="1" style="stop-color:#803DDF"/>
</linearGradient>
<path fill="url(#SVGID_1_)" d="M427.643,40.955c-0.487-1.257-1.145-2.326-2.207-3.392c-1.065-1.062-2.133-1.72-3.393-2.209
	c-1.219-0.471-2.611-0.796-4.648-0.888c-2.041-0.095-2.694-0.115-7.895-0.115s-5.855,0.021-7.896,0.115
	c-2.036,0.092-3.428,0.417-4.646,0.888c-1.262,0.489-2.328,1.146-3.395,2.209c-1.062,1.064-1.718,2.135-2.205,3.392
	c-0.474,1.219-0.8,2.611-0.892,4.648c-0.094,2.042-0.117,2.694-0.117,7.896s0.023,5.853,0.117,7.896
	c0.092,2.039,0.418,3.431,0.892,4.647c0.487,1.26,1.143,2.329,2.205,3.392c1.065,1.065,2.133,1.721,3.395,2.211
	c1.219,0.472,2.609,0.797,4.646,0.891c2.041,0.091,2.697,0.115,7.896,0.115s5.854-0.024,7.895-0.115
	c2.037-0.094,3.431-0.419,4.648-0.891c1.26-0.49,2.326-1.146,3.393-2.211c1.062-1.062,1.72-2.132,2.207-3.392
	c0.478-1.218,0.796-2.608,0.89-4.647c0.096-2.043,0.117-2.694,0.117-7.896s-0.021-5.854-0.117-7.896
	C428.438,43.566,428.119,42.174,427.643,40.955z M425.088,61.238c-0.086,1.865-0.397,2.88-0.662,3.556
	c-0.346,0.894-0.76,1.53-1.432,2.199c-0.672,0.671-1.307,1.086-2.201,1.437c-0.678,0.262-1.688,0.57-3.555,0.656
	c-2.021,0.094-2.625,0.112-7.738,0.112c-5.115,0-5.721-0.019-7.738-0.112c-1.869-0.086-2.879-0.396-3.557-0.656
	c-0.893-0.351-1.529-0.766-2.199-1.437c-0.67-0.669-1.086-1.306-1.434-2.199c-0.26-0.676-0.572-1.69-0.66-3.556
	c-0.092-2.021-0.109-2.625-0.109-7.739c0-5.112,0.019-5.718,0.109-7.735c0.088-1.867,0.4-2.882,0.66-3.557
	c0.348-0.894,0.762-1.533,1.434-2.201c0.67-0.67,1.308-1.087,2.199-1.433c0.678-0.265,1.688-0.575,3.557-0.66
	c2.021-0.092,2.623-0.111,7.738-0.111c5.113,0,5.719,0.021,7.738,0.111c1.867,0.085,2.877,0.396,3.555,0.66
	c0.896,0.346,1.529,0.763,2.201,1.433c0.672,0.668,1.086,1.309,1.432,2.201c0.265,0.675,0.576,1.688,0.662,3.557
	c0.09,2.019,0.109,2.623,0.109,7.735C425.197,58.613,425.178,59.217,425.088,61.238z M409.5,43.669c-5.434,0-9.834,4.397-9.834,9.83
	s4.4,9.834,9.834,9.834c5.432,0,9.832-4.401,9.832-9.834S414.932,43.669,409.5,43.669z M409.5,59.884
	c-3.527,0-6.383-2.858-6.383-6.385c0-3.524,2.854-6.383,6.383-6.383c3.525,0,6.381,2.857,6.381,6.383
	C415.881,57.023,413.025,59.884,409.5,59.884z M422.02,43.279c0,1.268-1.028,2.299-2.299,2.299c-1.27,0-2.297-1.031-2.297-2.299
	c0-1.271,1.027-2.301,2.297-2.301C420.991,40.979,422.02,42.01,422.02,43.279z M409.498,11.725
	c-23.035,0-41.773,18.739-41.773,41.774s18.738,41.776,41.773,41.776c23.037,0,41.777-18.741,41.777-41.776
	S432.535,11.725,409.498,11.725z M409.498,89.535c-19.869,0-36.033-16.166-36.033-36.036s16.164-36.035,36.033-36.035
	c19.871,0,36.037,16.165,36.037,36.035S429.369,89.535,409.498,89.535z"/>
<g>
	<path fill="#BB1721" d="M300.279,158.203c-2.369-2.229-5.414-3.268-7.566-3.527c-2.057-0.246-5.549-0.408-9.277,1.167
		c-4.008,1.695-5.899,4.466-6.815,5.886c-0.918,1.418-1.904,4.221-1.82,6.572c0.084,2.34,0.438,3.727,1.318,5.309
		c1.061,1.9,2.629,2.602,2.942,2.77c0.318,0.167,0.662,0.219,0.93,0.061c0.332-0.201,0.365-0.562,0.416-0.678
		c0.052-0.117,0.361-1.391,0.451-1.775c0.107-0.469-0.021-0.61-0.75-1.553c-0.91-1.178-1.303-3.396-0.899-5.666
		c0.226-1.285,0.812-2.693,1.582-3.889c0.592-0.913,1.307-1.689,1.971-2.236c1.535-1.26,4.431-2.678,8.002-2.377
		c3.57,0.301,5.517,1.762,6.832,3.629c1.318,1.871,1.603,4.989,0.918,8.576c-0.684,3.588-2.151,5.407-3.118,6.309
		c-0.97,0.9-1.89,1.436-3.656,1.421c-1.973-0.021-3.104-1.638-3.271-2.837c-0.098-0.702-0.018-1.252,0.816-4.039
		c0.969-3.232,1.336-4.288,1.053-5.957c-0.321-1.891-2-2.604-3.42-2.32c-1.502,0.301-3.121,1.786-3.506,4.307
		c-0.41,2.69,0.6,4.736,0.6,4.736s-1.616,6.859-1.717,7.293s-1.317,5.074-1.472,6.876c-0.147,1.804,0.193,5.294,0.261,5.794
		c0.021,0.141,0.051,0.236,0.09,0.299c0.056,0.09,0.19,0.187,0.361,0.095c0.12-0.064,0.272-0.312,0.389-0.459
		c0.149-0.2,0.826-1.103,1.488-2.146c0.489-0.776,0.963-1.647,1.268-2.286c0.718-1.504,1.021-2.771,1.021-2.771l1.426-5.514
		c0.936,1.635,3.152,2.595,4.947,2.67c1.957,0.082,4.279-0.336,6.502-1.922c2.217-1.582,3.621-4.078,4.196-5.48
		c0.505-1.229,0.994-2.755,1.224-4.389c0.186-1.293,0.242-2.375,0.201-3.764C304.109,163.32,302.586,160.374,300.279,158.203z"/>
	<path fill="#BB1721" d="M289.5,131.725c-23.035,0-41.775,18.739-41.775,41.774s18.74,41.776,41.775,41.776
		s41.775-18.741,41.775-41.776S312.535,131.725,289.5,131.725z M289.5,209.535c-19.869,0-36.035-16.166-36.035-36.036
		s16.166-36.035,36.035-36.035c19.871,0,36.035,16.165,36.035,36.035S309.371,209.535,289.5,209.535z"/>
</g>
<g>
	<path fill="#38BD4B" d="M49.499,131.725c-23.035,0-41.774,18.74-41.774,41.774c0,23.035,18.739,41.776,41.774,41.776
		s41.776-18.741,41.776-41.776C91.275,150.465,72.534,131.725,49.499,131.725z M49.499,209.535
		c-19.87,0-36.034-16.166-36.034-36.036s16.164-36.035,36.034-36.035s36.036,16.165,36.036,36.035S69.369,209.535,49.499,209.535z"
		/>
	<path fill="#38BD4B" d="M36.698,159.896c-6.699,6.699-7.42,17.105-2.175,24.608l-2.3,7.074l7.072-2.302
		c7.504,5.244,17.91,4.523,24.608-2.174c7.512-7.514,7.512-19.693,0-27.207C56.393,152.387,44.211,152.387,36.698,159.896z
		 M61.661,180.24c-0.177,1.223-0.329,1.398-1.308,2.258c-1.047,0.914-2.42,1.271-3.42,1.383c-0.998,0.11-2.219-0.045-4.525-0.934
		c-2.311-0.887-5.016-2.529-7.5-4.859c-2.487-2.33-5.551-7.102-5.639-9.32s0.858-3.75,1.591-4.726
		c0.732-0.978,1.502-0.938,2.832-0.927c0.809,0.009,0.985,0.298,1.153,0.658c0.434,0.934,1.665,3.727,1.776,4.004
		c0.131,0.332,0.362,0.688,0.029,1.465c-0.334,0.775-1.562,2.012-1.562,2.012c-0.242,0.296-0.235,0.614,0.186,1.191
		c0.423,0.576,1.629,2.309,3.484,3.912c1.36,1.176,3.887,2.387,4.29,2.529c0.519,0.186,0.712-0.097,0.712-0.097
		s1.495-1.787,1.938-2.338c0.479-0.599,0.95-0.341,0.95-0.341l4.521,2.175c0.266,0.122,0.393,0.215,0.495,0.334
		c0.147,0.17,0.135,0.51,0.135,0.51L61.661,180.24z"/>
</g>
<g>
	<path fill="#E12603" d="M542.877,41.346c-8.65-0.678-18.104-0.678-26.75,0c-2.705,0.33-4.744,2.15-5.266,4.828
		c-0.613,4.678-0.613,9.975-0.002,14.652c0.522,2.678,2.562,4.497,5.268,4.828c8.646,0.679,18.1,0.678,26.75,0
		c2.701-0.334,4.738-2.147,5.264-4.828c0.609-4.68,0.609-9.974,0-14.652C547.615,43.494,545.578,41.68,542.877,41.346z
		 M524.916,58.65V48.35l9.168,5.15L524.916,58.65z"/>
	<path fill="#E12603" d="M529.5,11.725c-23.035,0-41.775,18.74-41.775,41.774c0,23.035,18.74,41.776,41.775,41.776
		s41.775-18.741,41.775-41.776C571.275,30.465,552.535,11.725,529.5,11.725z M529.5,89.535c-19.871,0-36.035-16.166-36.035-36.036
		s16.164-36.034,36.035-36.034c19.869,0,36.035,16.164,36.035,36.034S549.369,89.535,529.5,89.535z"/>
</g>
<g>
	<path fill="#1276BA" d="M169.499,131.725c-23.035,0-41.774,18.74-41.774,41.774c0,23.035,18.739,41.776,41.774,41.776
		s41.776-18.741,41.776-41.776C211.275,150.465,192.534,131.725,169.499,131.725z M169.499,209.536
		c-19.87,0-36.034-16.166-36.034-36.037c0-19.87,16.164-36.034,36.034-36.034c19.871,0,36.037,16.164,36.037,36.034
		C205.536,193.37,189.37,209.536,169.499,209.536z"/>
	<rect x="154.096" y="167.354" fill="#1276BA" width="6.748" height="21.711"/>
	<path fill="#1276BA" d="M157.514,157.938c-2.18,0-3.597,1.467-3.597,3.375c0,1.865,1.376,3.375,3.508,3.375
		c2.263,0,3.64-1.51,3.64-3.375C161.02,159.402,159.688,157.938,157.514,157.938z"/>
	<path fill="#1276BA" d="M177.311,166.861c-3.637,0-5.812,2.088-6.703,3.506h-0.135l-0.311-3.016h-5.857
		c0.086,1.951,0.176,4.219,0.176,6.926v14.785h6.75v-12.521c0-0.621,0.043-1.243,0.223-1.688c0.486-1.242,1.597-2.529,3.462-2.529
		c2.442,0,3.421,1.91,3.421,4.708v12.03h6.748v-12.83C185.083,169.838,181.755,166.861,177.311,166.861z"/>
</g>
<g>
	<path fill="#E54D8C" d="M529.5,131.725c-23.035,0-41.775,18.74-41.775,41.774c0,23.035,18.74,41.776,41.775,41.776
		s41.775-18.741,41.775-41.776C571.275,150.465,552.535,131.725,529.5,131.725z M529.5,209.535
		c-19.871,0-36.035-16.166-36.035-36.036s16.164-36.034,36.035-36.034c19.869,0,36.035,16.164,36.035,36.034
		S549.369,209.535,529.5,209.535z"/>
	<path fill="#E54D8C" d="M536.883,175.846c2.648,7.27,3.726,13.188,3.933,14.418c4.543-3.066,7.776-7.928,8.68-13.554
		C548.803,176.491,543.227,174.83,536.883,175.846z"/>
	<path fill="#E54D8C" d="M532.957,176.824c-11.422,3.975-15.521,11.886-15.885,12.629c3.432,2.674,7.748,4.27,12.43,4.27
		c2.805,0,5.479-0.572,7.91-1.605c-0.303-1.775-1.479-7.958-4.32-15.336C533.047,176.794,533.002,176.809,532.957,176.824z"/>
	<path fill="#E54D8C" d="M530.918,173.676c0.264-0.084,0.529-0.164,0.797-0.238c-0.508-1.149-1.062-2.301-1.643-3.434
		c-10.111,3.021-19.926,2.896-20.812,2.877c-0.006,0.206-0.012,0.412-0.012,0.619c0,5.193,1.973,9.938,5.205,13.521
		C514.916,186.238,520.473,177.049,530.918,173.676z"/>
	<path fill="#E54D8C" d="M528.4,166.895c-3.355-5.957-6.976-10.965-7.509-11.696c-5.668,2.67-9.899,7.886-11.213,14.159
		C510.584,169.369,518.928,169.406,528.4,166.895z"/>
	<path fill="#E54D8C" d="M542.924,158.372c-3.576-3.168-8.276-5.095-13.422-5.095c-1.635,0-3.225,0.195-4.746,0.562
		c0.562,0.748,4.236,5.749,7.555,11.838C539.514,162.982,542.562,158.891,542.924,158.372z"/>
	<path fill="#E54D8C" d="M533.869,168.686c0.471,0.963,0.922,1.942,1.342,2.929c0.15,0.351,0.295,0.698,0.438,1.045
		c6.737-0.847,13.434,0.51,14.1,0.649c-0.045-4.772-1.752-9.156-4.572-12.598C544.748,161.287,541.355,165.631,533.869,168.686z"/>
</g>
<g>
	<path fill="#37475D" d="M409.5,131.725c-23.035,0-41.775,18.741-41.775,41.774c0,23.035,18.74,41.776,41.775,41.776
		s41.775-18.741,41.775-41.776C451.275,150.466,432.535,131.725,409.5,131.725z M409.5,209.535
		c-19.871,0-36.035-16.164-36.035-36.036c0-19.87,16.164-36.034,36.035-36.034c19.869,0,36.035,16.164,36.035,36.034
		C445.535,193.371,429.369,209.535,409.5,209.535z"/>
	<path fill="#37475D" d="M418.084,183.234c-0.105-0.303-0.258-0.469-0.494-0.527c-0.252-0.062-0.533,0.021-0.854,0.148
		c-0.431,0.174-1.291,0.44-2.166,0.463c-0.91,0-2.388-0.619-2.388-2.857v-8.914h5.584c0.369,0,0.669-0.299,0.669-0.667v-5.472
		c0-0.37-0.3-0.667-0.669-0.667h-5.557v-7.709c0-0.37-0.301-0.669-0.67-0.669h-4.748c-0.637,0-1.022,0.355-1.074,1.093
		c-0.192,2.754-1.494,6.375-5.646,7.839c-0.451,0.16-0.754,0.586-0.754,1.068v4.552c0,0.368,0.299,0.669,0.668,0.669h3.184v9.641
		c0,3.469,1.758,9.412,9.842,9.412h0.267c2.403-0.039,5.094-0.88,6.254-2.119c0.246-0.263,0.145-0.637,0.022-0.979L418.084,183.234z
		"/>
</g>
</svg>
