<!DOCTYPE svg PUBLIC "-//W3C//DTD SVG 1.1//EN" "http://www.w3.org/Graphics/SVG/1.1/DTD/svg11.dtd">
<svg version="1.1" id="Layer_1" xmlns="http://www.w3.org/2000/svg" xmlns:xlink="http://www.w3.org/1999/xlink" x="0px" y="0px"
	 width="40px" height="40px" viewBox="-21.5 -19.5 622 266" enable-background="new -21.5 -19.5 622 266" xml:space="preserve">
<linearGradient id="SVGID_1_" gradientUnits="userSpaceOnUse" x1="627.4736" y1="-353.0259" x2="686.526" y2="-293.9735" gradientTransform="matrix(1 0 0 -1 -247.5 -270)">
	<stop  offset="0" style="stop-color:#FFBD00"/>
	<stop  offset="0.4002" style="stop-color:#CA3744"/>
	<stop  offset="1" style="stop-color:#803DDF"/>
</linearGradient>
<path fill="url(#SVGID_1_)" d="M427.643,40.955c-0.487-1.257-1.145-2.326-2.207-3.392c-1.065-1.062-2.133-1.72-3.393-2.209
	c-1.219-0.471-2.611-0.796-4.648-0.888c-2.041-0.095-2.694-0.115-7.895-0.115s-5.855,0.021-7.896,0.115
	c-2.036,0.092-3.428,0.417-4.646,0.888c-1.262,0.489-2.328,1.146-3.395,2.209c-1.062,1.064-1.718,2.135-2.205,3.392
	c-0.474,1.219-0.8,2.611-0.892,4.648c-0.094,2.042-0.117,2.694-0.117,7.896s0.023,5.853,0.117,7.896
	c0.092,2.039,0.418,3.431,0.892,4.647c0.487,1.26,1.143,2.329,2.205,3.392c1.065,1.065,2.133,1.721,3.395,2.211
	c1.219,0.472,2.609,0.797,4.646,0.891c2.041,0.091,2.697,0.115,7.896,0.115s5.854-0.024,7.895-0.115
	c2.037-0.094,3.431-0.419,4.648-0.891c1.26-0.49,2.326-1.146,3.393-2.211c1.062-1.062,1.72-2.132,2.207-3.392
	c0.478-1.218,0.796-2.608,0.89-4.647c0.096-2.043,0.117-2.694,0.117-7.896s-0.021-5.854-0.117-7.896
	C428.438,43.566,428.119,42.174,427.643,40.955z M425.088,61.238c-0.086,1.865-0.397,2.88-0.662,3.556
	c-0.346,0.894-0.76,1.53-1.432,2.199c-0.672,0.671-1.307,1.086-2.201,1.437c-0.678,0.262-1.688,0.57-3.555,0.656
	c-2.021,0.094-2.625,0.112-7.738,0.112c-5.115,0-5.721-0.019-7.738-0.112c-1.869-0.086-2.879-0.396-3.557-0.656
	c-0.893-0.351-1.529-0.766-2.199-1.437c-0.67-0.669-1.086-1.306-1.434-2.199c-0.26-0.676-0.572-1.69-0.66-3.556
	c-0.092-2.021-0.109-2.625-0.109-7.739c0-5.112,0.019-5.718,0.109-7.735c0.088-1.867,0.4-2.882,0.66-3.557
	c0.348-0.894,0.762-1.533,1.434-2.201c0.67-0.67,1.308-1.087,2.199-1.433c0.678-0.265,1.688-0.575,3.557-0.66
	c2.021-0.092,2.623-0.111,7.738-0.111c5.113,0,5.719,0.021,7.738,0.111c1.867,0.085,2.877,0.396,3.555,0.66
	c0.896,0.346,1.529,0.763,2.201,1.433c0.672,0.668,1.086,1.309,1.432,2.201c0.265,0.675,0.576,1.688,0.662,3.557
	c0.09,2.019,0.109,2.623,0.109,7.735C425.197,58.613,425.178,59.217,425.088,61.238z M409.5,43.669c-5.434,0-9.834,4.397-9.834,9.83
	s4.4,9.834,9.834,9.834c5.432,0,9.832-4.401,9.832-9.834S414.932,43.669,409.5,43.669z M409.5,59.884
	c-3.527,0-6.383-2.858-6.383-6.385c0-3.524,2.854-6.383,6.383-6.383c3.525,0,6.381,2.857,6.381,6.383
	C415.881,57.023,413.025,59.884,409.5,59.884z M422.02,43.279c0,1.268-1.028,2.299-2.299,2.299c-1.27,0-2.297-1.031-2.297-2.299
	c0-1.271,1.027-2.301,2.297-2.301C420.991,40.979,422.02,42.01,422.02,43.279z M409.498,11.725
	c-23.035,0-41.773,18.739-41.773,41.774s18.738,41.776,41.773,41.776c23.037,0,41.777-18.741,41.777-41.776
	S432.535,11.725,409.498,11.725z M409.498,89.535c-19.869,0-36.033-16.166-36.033-36.036s16.164-36.035,36.033-36.035
	c19.871,0,36.037,16.165,36.037,36.035S429.369,89.535,409.498,89.535z"/>


</svg>