<!DOCTYPE svg PUBLIC "-//W3C//DTD SVG 1.1//EN" "http://www.w3.org/Graphics/SVG/1.1/DTD/svg11.dtd">
<svg version="1.1" id="Layer_1" xmlns="http://www.w3.org/2000/svg" xmlns:xlink="http://www.w3.org/1999/xlink" x="0px" y="0px"
	 width="40px" height="40px" viewBox="-21.5 -19.5 622 266" enable-background="new -21.5 -19.5 622 266" xml:space="preserve">
<g>
	<path fill="#299DF4" d="M187.05,40.124c-1.409,0.833-2.966,1.439-4.625,1.768c-1.329-1.414-3.224-2.3-5.313-2.3
		c-4.022,0-7.281,3.259-7.281,7.281c0,0.569,0.062,1.127,0.188,1.656c-6.051-0.301-11.416-3.199-15.009-7.605
		c-0.628,1.076-0.985,2.328-0.985,3.662c0,2.523,1.285,4.754,3.24,6.06c-1.195-0.037-2.315-0.366-3.298-0.912
		c-0.002,0.03-0.002,0.062-0.002,0.095c0,3.525,2.509,6.471,5.843,7.138c-0.613,0.168-1.255,0.259-1.92,0.259
		c-0.468,0-0.924-0.048-1.367-0.132c0.926,2.892,3.612,4.997,6.799,5.056c-2.49,1.953-5.629,3.117-9.043,3.117
		c-0.588,0-1.166-0.033-1.736-0.103c3.223,2.065,7.051,3.272,11.163,3.272c13.394,0,20.717-11.097,20.717-20.718
		c0-0.315-0.008-0.63-0.021-0.943c1.422-1.025,2.656-2.308,3.631-3.768c-1.305,0.578-2.709,0.968-4.182,1.144
		C185.352,43.252,186.506,41.821,187.05,40.124z"/>
	<path fill="#299DF4" d="M169.5,11.725c-23.035,0-41.775,18.739-41.775,41.774s18.74,41.776,41.775,41.776
		s41.775-18.741,41.775-41.776S192.535,11.725,169.5,11.725z M169.5,89.535c-19.87,0-36.036-16.166-36.036-36.036
		S149.63,17.464,169.5,17.464s36.036,16.165,36.036,36.035S189.37,89.535,169.5,89.535z"/>
</g>
</svg>