<!DOCTYPE svg PUBLIC "-//W3C//DTD SVG 1.1//EN" "http://www.w3.org/Graphics/SVG/1.1/DTD/svg11.dtd">
<svg version="1.1" id="Layer_1" xmlns="http://www.w3.org/2000/svg" xmlns:xlink="http://www.w3.org/1999/xlink" x="0px" y="0px"
	 width="40px" height="40px" viewBox="-21.5 -19.5 622 266" enable-background="new -21.5 -19.5 622 266" xml:space="preserve">

<g>
	<path fill="#38BD4B" d="M49.499,131.725c-23.035,0-41.774,18.74-41.774,41.774c0,23.035,18.739,41.776,41.774,41.776
		s41.776-18.741,41.776-41.776C91.275,150.465,72.534,131.725,49.499,131.725z M49.499,209.535
		c-19.87,0-36.034-16.166-36.034-36.036s16.164-36.035,36.034-36.035s36.036,16.165,36.036,36.035S69.369,209.535,49.499,209.535z"
		/>
	<path fill="#38BD4B" d="M36.698,159.896c-6.699,6.699-7.42,17.105-2.175,24.608l-2.3,7.074l7.072-2.302
		c7.504,5.244,17.91,4.523,24.608-2.174c7.512-7.514,7.512-19.693,0-27.207C56.393,152.387,44.211,152.387,36.698,159.896z
		 M61.661,180.24c-0.177,1.223-0.329,1.398-1.308,2.258c-1.047,0.914-2.42,1.271-3.42,1.383c-0.998,0.11-2.219-0.045-4.525-0.934
		c-2.311-0.887-5.016-2.529-7.5-4.859c-2.487-2.33-5.551-7.102-5.639-9.32s0.858-3.75,1.591-4.726
		c0.732-0.978,1.502-0.938,2.832-0.927c0.809,0.009,0.985,0.298,1.153,0.658c0.434,0.934,1.665,3.727,1.776,4.004
		c0.131,0.332,0.362,0.688,0.029,1.465c-0.334,0.775-1.562,2.012-1.562,2.012c-0.242,0.296-0.235,0.614,0.186,1.191
		c0.423,0.576,1.629,2.309,3.484,3.912c1.36,1.176,3.887,2.387,4.29,2.529c0.519,0.186,0.712-0.097,0.712-0.097
		s1.495-1.787,1.938-2.338c0.479-0.599,0.95-0.341,0.95-0.341l4.521,2.175c0.266,0.122,0.393,0.215,0.495,0.334
		c0.147,0.17,0.135,0.51,0.135,0.51L61.661,180.24z"/>
</g>


</svg>