<svg class="svg-icon" style="width: 1em; height: 1em;vertical-align: middle;fill: currentColor;overflow: hidden;" viewBox="0 0 1024 1024" version="1.1" xmlns="http://www.w3.org/2000/svg"><path d="M508.342857 96.914286c-226.742857 0-411.428571 182.857143-411.428571 411.428571s184.685714 411.428571 411.428571 411.428572 411.428571-184.685714 411.428572-411.428572S735.085714 96.914286 508.342857 96.914286z m43.885714 224.914285c51.2 0 93.257143 42.057143 93.257143 93.257143s-42.057143 93.257143-93.257143 93.257143-93.257143-42.057143-93.257142-93.257143c1.828571-51.2 42.057143-93.257143 93.257142-93.257143z m-272.457142 151.771429v-25.6h64V384h25.6v64h64v25.6h-64v64h-25.6v-64h-64z m458.971428 219.428571H367.542857v-69.485714c0-62.171429 122.514286-93.257143 184.685714-93.257143s184.685714 31.085714 184.685715 93.257143v69.485714z" fill="#65C3C7" /></svg>